# xmcd
#
# Track frame offsets:
#	150
#	16227
#	34460
#	53470
#	66974
#	80445
#	92867
#	104806
#	121680
#	132505
#	141797
#	157908
#	177371
#	190689
#	226286
#	242663
#	262137
#	279559
#	295692
#
# Disc length: 4023 seconds
#
# Revision: 0
# Processed by: cddbd v1.5.2PL0 Copyright (c) Steve Scherf et al.
# Submitted via: EZCDAudioConverter 2.1.7.1
#
DISCID=0e0fb513
DTITLE=V/A - Cosmic American Music
DYEAR=1900
DGENRE=
TTITLE0=Jimmy Carter and Dallas County Green - Travelin'
TTITLE1=Mistress Mary - And I Didn't Want You
TTITLE2=Plain Jane - You Can't Make It Alone
TTITLE3=Dan Pavlides - Lily Of The Valley
TTITLE4=Angel Oak - I Saw Her Cry
TTITLE5=Kathy Heidiman - Sleep A Million Years
TTITLE6=Deerfield - Me Lovin' You
TTITLE7=Arrogance - To See Her Smile
TTITLE8=Jeff Cowell - Not Down This Low
TTITLE9=Kenny Knight - Baby's Back
TTITLE10=Black Canyon Gang - Lonesome City
TTITLE11=Allan Wachs - Mountain Roads
TTITLE12=Mike and Pam Martin - Lonely Entertainer
TTITLE13=Bill Madison - Buffalo Skinners
TTITLE14=White Cloud - All Cried Out
TTITLE15=Ethel-Ann Powell - Gentle One
TTITLE16=Sandy Harless - I Know Her Well
TTITLE17=F.J. McMahon - The Spirit Of The Golden Juice
TTITLE18=Doug Firebaugh - Alabama Railroad Town
EXTD=
EXTT0=
EXTT1=
EXTT2=
EXTT3=
EXTT4=
EXTT5=
EXTT6=
EXTT7=
EXTT8=
EXTT9=
EXTT10=
EXTT11=
EXTT12=
EXTT13=
EXTT14=
EXTT15=
EXTT16=
EXTT17=
EXTT18=
PLAYORDER=
